<svg width="1250px" height="1250px" viewBox="0 0 1250 1250" version="1.1" xmlns="http://www.w3.org/2000/svg" xmlns:xlink="http://www.w3.org/1999/xlink">
    <defs>
        <linearGradient x1="50.0000012%" y1="-0.170030573%" x2="50.0000012%" y2="99.823847%" id="linearGradient-1">
            <stop stop-color="#4F4F4F" offset="0%"></stop>
            <stop stop-color="#333333" offset="100%"></stop>
        </linearGradient>
        <linearGradient x1="50.0023299%" y1="-327.127614%" x2="50.0023299%" y2="97.3506876%" id="linearGradient-2">
            <stop stop-color="#D3D4D3" offset="0%"></stop>
            <stop stop-color="#B8BABB" offset="100%"></stop>
        </linearGradient>
        <linearGradient x1="50.0006822%" y1="-121.491951%" x2="50.0006822%" y2="120.597715%" id="linearGradient-3">
            <stop stop-color="#D3D4D3" offset="0%"></stop>
            <stop stop-color="#B8BABB" offset="100%"></stop>
        </linearGradient>
        <linearGradient x1="50.0032407%" y1="-62.2184918%" x2="50.0032407%" y2="159.035871%" id="linearGradient-4">
            <stop stop-color="#D3D4D3" offset="0%"></stop>
            <stop stop-color="#B8BABB" offset="100%"></stop>
        </linearGradient>
        <linearGradient x1="49.9990836%" y1="-23.8483311%" x2="49.9990836%" y2="217.789254%" id="linearGradient-5">
            <stop stop-color="#D3D4D3" offset="0%"></stop>
            <stop stop-color="#B8BABB" offset="100%"></stop>
        </linearGradient>
        <linearGradient x1="49.9918218%" y1="-2.49848064%" x2="49.9918218%" y2="416.940504%" id="linearGradient-6">
            <stop stop-color="#D3D4D3" offset="0%"></stop>
            <stop stop-color="#B8BABB" offset="100%"></stop>
        </linearGradient>
        <linearGradient x1="49.9898903%" y1="-1.46863635%" x2="49.9898903%" y2="102.063542%" id="linearGradient-7">
            <stop stop-color="#4F4F4F" offset="0%"></stop>
            <stop stop-color="#333333" offset="100%"></stop>
        </linearGradient>
    </defs>
    <g id="Page-1" stroke="none" stroke-width="1" fill="none" fill-rule="evenodd">
        <g id="litecoin-logo" fill-rule="nonzero">
            <path d="M1087.7,544 C1087.7,844.4 844.4,1087.7 544,1087.7 C243.6,1087.7 0.3,844.4 0.3,544 C0.3,243.6 243.6,0.3 544,0.3 C844.4,0.3 1087.7,243.6 1087.7,544 Z" id="path11087_1_" fill="url(#linearGradient-1)"></path>
            <path d="M1020.7,544 C1020.7,807 807.1,1020.7 544,1020.7 C280.9,1020.7 67.3,807.6 67.3,544 C67.3,281 280.9,67.3 544,67.3 C807.6,67.3 1020.7,281 1020.7,544 Z" id="path11089_1_" fill="#FFFFFF"></path>
            <g id="XMLID_552_" transform="translate(156.000000, 155.000000)">
                <path d="M718.6,594.4 L272.1,759.7 C308.9,771.2 347.9,777.3 388.5,777.3 C527.5,777.8 649.9,704.2 718.6,594.4 Z" id="path11093_1_" fill="url(#linearGradient-2)"></path>
                <path d="M776.8,385.7 L90.9,640 C112.3,665.3 136.5,687.8 163.4,706.4 L765.3,482.9 C773,452.7 776.8,421.4 776.8,389 C776.8,387.9 776.8,386.8 776.8,385.7 Z" id="path11095_1_" fill="url(#linearGradient-3)"></path>
                <path d="M735.1,214.4 L10.7,482.9 C17.8,511.5 28.3,538.9 41.5,565.3 L765.8,296.8 C758.7,267.6 748.2,240.2 735.1,214.4 Z" id="path11097_1_" fill="url(#linearGradient-4)"></path>
                <path d="M613.7,72.7 L11.3,296.2 C4.2,325.9 0.3,357.2 0.3,389.6 C0.3,391.2 0.3,392.3 0.3,394 L686.2,139.2 C664.8,113.9 640.1,91.4 613.7,72.7 Z" id="path11099_1_" fill="url(#linearGradient-5)"></path>
                <path d="M388,0.7 C248,0.7 125.5,74.8 56.9,185.8 L506.1,19.4 C469.3,6.8 429.2,0.7 388,0.7 Z" id="path11101_1_" fill="url(#linearGradient-6)"></path>
            </g>
            <polygon id="path11103_1_" fill="url(#linearGradient-7)" points="450.1 228.2 378.2 501.7 330.4 519.3 288.7 675.8 337 657.7 301.9 791.1 794.5 791.1 839.5 620.3 579.7 620.3 595.1 561.5 642.9 543.9 684.6 387.4 636.8 405.5 683.5 228.1 450.1 228.1"></polygon>
            <polygon id="path11105_1_" fill="#FFFFFF" points="472.6 257.3 402.3 522.5 354 541.3 330.9 628 379.2 609.9 339.1 761.5 771.3 761.5 801 648.9 541.3 648.9 570.4 539.1 618.2 521.5 641.3 434.7 593.5 452.8 644.6 257.3"></polygon>
        </g>
    </g>
</svg>
