<?xml version="1.0" encoding="utf-8"?>
<!-- Generator: Adobe Illustrator 19.0.0, SVG Export Plug-In . SVG Version: 6.00 Build 0)  -->
<svg version="1.1" id="Layer_1" xmlns="http://www.w3.org/2000/svg" xmlns:xlink="http://www.w3.org/1999/xlink" x="0px" y="0px"
	 viewBox="0 0 1250 1500" style="enable-background:new 0 0 1250 1500;" xml:space="preserve">
<style type="text/css">
	.st0{fill:url(#path11087_2_);}
	.st1{fill:#FFFFFF;}
	.st2{fill:url(#path11093_2_);}
	.st3{fill:url(#path11095_2_);}
	.st4{fill:url(#path11097_2_);}
	.st5{fill:url(#path11099_2_);}
	.st6{fill:url(#path11101_2_);}
	.st7{fill:url(#path11103_2_);}
</style>
<g id="XMLID_551_">
	
		<linearGradient id="path11087_2_" gradientUnits="userSpaceOnUse" x1="1912.6942" y1="-961.2855" x2="1912.6942" y2="-3334.8577" gradientTransform="matrix(0.4581 0 0 -0.4581 -251.2052 -235.9138)">
		<stop  offset="0" style="stop-color:#4F4F4F"/>
		<stop  offset="1" style="stop-color:#333333"/>
	</linearGradient>
	<path id="path11087_1_" class="st0" d="M1168.7,750c0,300.4-243.3,543.7-543.7,543.7S81.3,1050.4,81.3,750S324.6,206.3,625,206.3
		S1168.7,449.6,1168.7,750z"/>
	<path id="path11089_1_" class="st1" d="M1101.7,750c0,263-213.6,476.7-476.7,476.7S148.3,1013.6,148.3,750
		c0-263,213.6-476.7,476.7-476.7C888.6,273.3,1101.7,487,1101.7,750z"/>
	<g id="XMLID_552_">
		
			<linearGradient id="path11093_2_" gradientUnits="userSpaceOnUse" x1="79306.4453" y1="-13763.9502" x2="79306.4453" y2="-42885.5391" gradientTransform="matrix(2.664000e-02 0 0 -2.666000e-02 -1380.3633 -9.8716)">
			<stop  offset="0" style="stop-color:#D3D4D3"/>
			<stop  offset="1" style="stop-color:#B8BABB"/>
		</linearGradient>
		<path id="path11093_1_" class="st2" d="M955.6,955.4l-446.5,165.3c36.8,11.5,75.8,17.6,116.4,17.6
			C764.5,1138.8,886.9,1065.2,955.6,955.4L955.6,955.4z"/>
		
			<linearGradient id="path11095_2_" gradientUnits="userSpaceOnUse" x1="76997.6719" y1="-13763.9502" x2="76997.6719" y2="-42885.5391" gradientTransform="matrix(2.664000e-02 0 0 -2.666000e-02 -1380.3633 -9.8716)">
			<stop  offset="0" style="stop-color:#D3D4D3"/>
			<stop  offset="1" style="stop-color:#B8BABB"/>
		</linearGradient>
		<path id="path11095_1_" class="st3" d="M1013.8,746.7L327.9,1001c21.4,25.3,45.6,47.8,72.5,66.4l601.9-223.5
			c7.7-30.2,11.5-61.5,11.5-93.9C1013.8,748.9,1013.8,747.8,1013.8,746.7L1013.8,746.7z"/>
		
			<linearGradient id="path11097_2_" gradientUnits="userSpaceOnUse" x1="75286.7031" y1="-13763.9502" x2="75286.7031" y2="-42885.5391" gradientTransform="matrix(2.664000e-02 0 0 -2.666000e-02 -1380.3633 -9.8716)">
			<stop  offset="0" style="stop-color:#D3D4D3"/>
			<stop  offset="1" style="stop-color:#B8BABB"/>
		</linearGradient>
		<path id="path11097_1_" class="st4" d="M972.1,575.4L247.7,843.9c7.1,28.6,17.6,56,30.8,82.4l724.3-268.5
			C995.7,628.6,985.2,601.2,972.1,575.4L972.1,575.4z"/>
		
			<linearGradient id="path11099_2_" gradientUnits="userSpaceOnUse" x1="73596.3594" y1="-13763.9502" x2="73596.3594" y2="-42885.5391" gradientTransform="matrix(2.664000e-02 0 0 -2.666000e-02 -1380.3633 -9.8716)">
			<stop  offset="0" style="stop-color:#D3D4D3"/>
			<stop  offset="1" style="stop-color:#B8BABB"/>
		</linearGradient>
		<path id="path11099_1_" class="st5" d="M850.7,433.7L248.3,657.2c-7.1,29.7-11,61-11,93.4c0,1.6,0,2.7,0,4.4l685.9-254.8
			C901.8,474.9,877.1,452.4,850.7,433.7L850.7,433.7z"/>
		
			<linearGradient id="path11101_2_" gradientUnits="userSpaceOnUse" x1="71277.2734" y1="-13763.9502" x2="71277.2734" y2="-42885.5391" gradientTransform="matrix(2.664000e-02 0 0 -2.666000e-02 -1380.3633 -9.8716)">
			<stop  offset="0" style="stop-color:#D3D4D3"/>
			<stop  offset="1" style="stop-color:#B8BABB"/>
		</linearGradient>
		<path id="path11101_1_" class="st6" d="M625,361.7c-140,0-262.5,74.1-331.1,185.1l449.2-166.4C706.3,367.8,666.2,361.7,625,361.7
			L625,361.7z"/>
	</g>
	
		<linearGradient id="path11103_2_" gradientUnits="userSpaceOnUse" x1="1956.4495" y1="-1444.5435" x2="1956.4495" y2="-2716.9429" gradientTransform="matrix(0.4581 0 0 -0.4581 -251.2052 -235.9138)">
		<stop  offset="0" style="stop-color:#4F4F4F"/>
		<stop  offset="1" style="stop-color:#333333"/>
	</linearGradient>
	<path id="path11103_1_" class="st7" d="M531.1,434.2l-71.9,273.5l-47.8,17.6l-41.7,156.5l48.3-18.1l-35.1,133.4h492.6l45-170.8
		H660.7l15.4-58.8l47.8-17.6l41.7-156.5l-47.8,18.1l46.7-177.4H531.1z"/>
	<path id="path11105_1_" class="st1" d="M553.6,463.3l-70.3,265.2L435,747.3L411.9,834l48.3-18.1l-40.1,151.6h432.2L882,854.9H622.3
		l29.1-109.8l47.8-17.6l23.1-86.8l-47.8,18.1l51.1-195.5L553.6,463.3z"/>
</g>
</svg>
